<svg width="41" height="80" viewBox="0 0 41 80" fill="none" xmlns="http://www.w3.org/2000/svg">
<g clip-path="url(#clip0_187_10468)">
<path d="M37.8121 17.5832C37.8121 17.5832 37.7678 17.5832 37.7235 17.5832C37.0594 17.5394 36.5723 16.9708 36.6166 16.3147C37.325 7.61052 30.0637 3.49899 23.6436 2.62419C22.9352 2.53671 22.1382 2.44923 21.3412 2.40549C20.6328 2.40549 19.8801 2.40549 19.1717 2.40549C18.419 2.40549 17.622 2.53671 16.8693 2.66793C10.3607 3.71769 3.71921 7.82922 4.38335 16.3147C4.42763 16.9708 3.94059 17.5394 3.27644 17.5832C2.6123 17.6269 2.0367 17.1458 1.99243 16.4897C1.37256 8.17914 7.03994 1.83688 16.5151 0.305986C17.3564 0.174766 18.1976 0.0872868 19.0389 0.043547C19.7916 -0.000192749 20.6328 -0.000192749 21.4298 0.043547C22.3153 0.043547 23.1566 0.131027 23.9535 0.262246C31.392 1.312 39.8045 6.16711 39.0075 16.5334C38.9633 17.1458 38.432 17.6269 37.8121 17.6269V17.5832Z" fill="#2D2D2D"/>
<path d="M37.8122 16.4024L37.0595 25.544H3.94072L3.18802 16.4024C2.52387 7.69818 9.12107 2.71185 16.7366 1.48714C17.5336 1.35592 18.3306 1.26844 19.1275 1.2247C19.8802 1.18096 20.6329 1.18096 21.3856 1.2247C22.1826 1.2247 22.9796 1.31218 23.7766 1.4434C31.6135 2.53689 38.4764 7.52322 37.7679 16.4024H37.8122Z" fill="#D11207"/>
<path d="M23.8208 79.8251C23.0238 79.9126 22.2268 80 21.4298 80C20.6771 80 19.9244 80 19.1717 80C18.3748 80 17.5778 79.8688 16.7808 79.7813C9.20953 78.7316 2.65661 74.4451 3.18793 66.9219L3.98491 55.5933H37.1037L37.9007 66.9219C38.432 74.6201 31.5691 78.9066 23.8208 79.8688V79.8251Z" fill="#D11207"/>
<path d="M3.14355 67.6216C3.14355 71.9956 5.53448 75.2323 9.16515 77.2443C7.92541 73.3515 6.37574 69.6336 3.14355 67.6216Z" fill="#232323"/>
<path d="M37.9449 67.6216C37.9449 71.9956 35.554 75.2323 31.9233 77.2443C33.1631 73.3515 34.7128 69.6336 37.9449 67.6216Z" fill="#232323"/>
<path d="M37.0595 21.9136H3.94067V64.4723H37.0595V21.9136Z" fill="#D11207"/>
<path d="M33.5615 27.7747H7.48267L9.91787 6.64836C9.96215 5.81731 10.4935 5.11747 11.379 4.54886C15.2753 1.92447 25.8131 1.92447 29.6652 4.54886C30.5064 5.11747 31.0377 5.81731 31.1263 6.64836L33.5615 27.7747Z" fill="#F71616"/>
<path opacity="0.2" d="M33.5615 27.7747H7.48267L9.91787 6.64836C9.96215 5.81731 10.4935 5.11747 11.379 4.54886C15.2753 1.92447 25.8131 1.92447 29.6652 4.54886C30.5064 5.11747 31.0377 5.81731 31.1263 6.64836L33.5615 27.7747Z" fill="url(#paint0_linear_187_10468)"/>
<path d="M6.46436 48.376H34.5356C34.5356 77.4629 31.1263 77.4629 20.6328 77.4629C10.1393 77.4629 6.46436 77.4629 6.46436 48.376Z" fill="#BF0202"/>
<path opacity="0.5" d="M16.7366 75.4512V79.7377C17.5335 79.869 18.3305 79.9127 19.1275 79.9564V75.4512C18.3305 75.4075 17.4893 75.6262 16.7366 75.4512Z" fill="#FBFBFB"/>
<path opacity="0.5" d="M21.4297 75.4512V80.0002C22.2267 80.0002 23.0236 79.9127 23.8206 79.8252V75.3638C23.0236 75.495 22.2267 75.4075 21.4297 75.4512Z" fill="#FBFBFB"/>
<path d="M32.8531 60.1423C32.676 63.4228 8.45681 63.4228 8.2797 60.1423C6.42009 50.5196 6.0216 39.8908 6.64147 28.5622C6.50864 25.9379 11.1134 24.407 16.6037 23.8821C19.6145 23.6197 22.8909 23.6634 25.8132 24.0133C30.6836 24.6257 34.5799 26.1128 34.4471 28.5185C34.9784 39.6284 34.5799 50.2134 32.8089 60.0986L32.8531 60.1423Z" fill="#484D51"/>
<path opacity="0.2" d="M27.1416 34.8608H15.7183L16.6481 23.8821C19.6589 23.6197 22.9353 23.6634 25.8576 24.0133L27.1416 34.8608Z" fill="url(#paint1_linear_187_10468)"/>
<path d="M11.1135 35.2105L7.61564 26.5063C6.81866 26.2001 5.93313 27.2498 6.46445 28.5183L9.82946 36.6101L11.1135 35.2105Z" fill="#B90A0C"/>
<path d="M30.1523 35.2542L33.4731 26.5063C34.2701 26.2001 35.1556 27.2498 34.6243 28.5183L31.3035 36.4352L30.1523 35.2542Z" fill="#B90A0C"/>
<path d="M9.2981 63.1166V61.3232H31.7905V63.1166C31.7905 74.5764 26.1674 75.6261 20.5443 75.6261C14.9212 75.6261 9.2981 75.3637 9.2981 63.1166Z" fill="#232323"/>
<path d="M31.7461 38.2722V60.8419C31.7461 61.4105 31.2591 61.8479 30.6392 61.9791C30.5506 61.9791 30.4621 61.9791 30.3293 61.9791H10.6705C10.582 61.9791 10.4934 61.9791 10.3606 61.9791C9.7407 61.8479 9.25366 61.4105 9.25366 60.8419V38.2722C9.25366 37.3099 9.65215 36.4351 10.3606 35.7352C10.8919 35.2104 11.556 34.7292 12.3973 34.3356C14.3897 33.3733 17.1349 32.8922 19.9243 32.8047C20.2785 32.8047 20.677 32.8047 21.0312 32.8047C23.8206 32.8484 26.5658 33.3733 28.5582 34.3356C29.3552 34.7292 30.0636 35.1666 30.5949 35.7352C31.3033 36.4351 31.7018 37.2661 31.7018 38.2722H31.7461Z" fill="#F71616"/>
<path opacity="0.2" d="M30.6394 35.8227V62.0228H10.405V35.8227C10.405 35.8227 10.405 35.779 10.405 35.7352C10.9363 35.2104 11.6005 34.7292 12.4417 34.3356C14.4342 33.3733 17.1793 32.8922 19.9687 32.8047C20.323 32.8047 20.7214 32.8047 21.0757 32.8047C23.8651 32.8484 26.6102 33.3733 28.6027 34.3356C29.3996 34.7292 30.1081 35.1666 30.6394 35.7352C30.6394 35.7352 30.6394 35.779 30.6394 35.8227Z" fill="url(#paint2_linear_187_10468)"/>
<path d="M4.93188 30.2285L0.159063 31.3866L0.000642125 30.7495C-0.210586 29.8999 0.340842 29.0004 1.20081 28.7918L2.74875 28.4162C3.60872 28.2075 4.51924 28.7522 4.73047 29.6018L4.88889 30.2389L4.93188 30.2285Z" fill="#F71616"/>
<path d="M4.92667 30.7046L0.454836 31.7897C0.368839 31.8106 0.31528 31.7785 0.294157 31.6936L0.209666 31.3538L4.93949 30.2061L5.02398 30.5459C5.0451 30.6309 5.01267 30.6838 4.92667 30.7046Z" fill="#4D4D4D"/>
<path d="M5.53449 30.4424C5.84442 30.4424 5.84442 28.168 5.53449 28.168L5.00317 28.2554C4.73751 28.2992 4.5604 28.5616 4.60468 28.8241L4.91462 30.0925C4.95889 30.355 5.22455 30.4862 5.49021 30.4424H5.53449Z" fill="#F71616"/>
<path d="M5.2246 29.524C5.2246 29.8302 4.95895 30.1363 4.60473 30.1363C4.25052 30.1363 3.98486 29.8739 3.98486 29.524C3.98486 29.1741 4.25052 28.9116 4.60473 28.9116C4.95895 28.9116 5.2246 29.1741 5.2246 29.524Z" fill="#F71616"/>
<path d="M38.1559 28.4028L39.7039 28.7784C40.5638 28.9871 41.1152 29.8866 40.904 30.7361L40.7456 31.3733L35.9728 30.2152L36.1312 29.578C36.3424 28.7285 37.2529 28.1837 38.1129 28.3924L38.1559 28.4028Z" fill="#F71616"/>
<path d="M36.0261 30.2295L40.7989 31.3876L40.7145 31.7274C40.6933 31.8124 40.6398 31.8444 40.5538 31.8235L36.0819 30.7385C35.9959 30.7176 35.9635 30.6647 35.9846 30.5797L36.0691 30.2399L36.0261 30.2295Z" fill="#4D4D4D"/>
<path d="M35.4654 30.4424C35.0226 30.4424 35.0226 28.168 35.4654 28.168L35.9967 28.2554C36.2624 28.2992 36.4395 28.5616 36.3952 28.8241L36.0852 30.0925C36.041 30.355 35.7753 30.4862 35.5096 30.4424H35.4654Z" fill="#F71616"/>
<path d="M36.7495 29.7427C36.7495 30.0489 36.4838 30.3551 36.1296 30.3551C35.7754 30.3551 35.5098 30.0926 35.5098 29.7427C35.5098 29.3928 35.7754 29.1304 36.1296 29.1304C36.4838 29.1304 36.7495 29.3928 36.7495 29.7427Z" fill="#F71616"/>
<g opacity="0.5">
<path opacity="0.5" d="M5.75592 15.4839C5.75592 19.0706 5.9773 24.9317 5.49026 24.9317C5.00322 24.9317 3.98486 19.1143 3.98486 15.4839C3.98486 11.8535 5.00322 11.8535 5.49026 11.8535C5.9773 11.8535 5.75592 11.8535 5.75592 15.4839Z" fill="url(#paint3_linear_187_10468)"/>
<path opacity="0.5" d="M35.2882 15.4839C35.2882 19.0706 35.0669 24.9317 35.5539 24.9317C36.0409 24.9317 37.0593 19.1143 37.0593 15.4839C37.0593 11.8535 36.0409 11.8535 35.5539 11.8535C35.0669 11.8535 35.2882 11.8535 35.2882 15.4839Z" fill="url(#paint4_linear_187_10468)"/>
</g>
<path d="M36.1296 44.527C35.864 44.527 35.6426 44.3083 35.6426 44.0458V41.2902C35.6426 41.0278 35.864 40.8091 36.1296 40.8091C36.3953 40.8091 36.6167 41.0278 36.6167 41.2902V44.0458C36.6167 44.3083 36.3953 44.527 36.1296 44.527Z" fill="#E5E5E5"/>
<path d="M5.22459 44.527C4.95893 44.527 4.73755 44.3083 4.73755 44.0458V41.2902C4.73755 41.0278 4.95893 40.8091 5.22459 40.8091C5.49025 40.8091 5.71163 41.0278 5.71163 41.2902V44.0458C5.71163 44.3083 5.49025 44.527 5.22459 44.527Z" fill="#E5E5E5"/>
<path d="M7.48275 26.5065C7.65986 26.419 14.0357 20.8641 14.0357 20.8641L15.7182 3.36816L15.1869 21.4327L11.5562 24.5819L7.43848 26.5065H7.48275Z" fill="#D11207"/>
<path d="M33.5616 26.5065C33.3845 26.419 27.0087 20.8641 27.0087 20.8641L25.3262 3.36816L25.8575 21.4327L29.4882 24.5819L33.6059 26.5065H33.5616Z" fill="#D11207"/>
<g opacity="0.5">
<path d="M19.1275 23.7511V1.2251C18.3305 1.2251 17.5335 1.35632 16.7366 1.48754V23.8823C17.5335 23.7511 18.3305 23.7948 19.1275 23.7511Z" fill="#FBFBFB"/>
<path d="M19.1275 62.0233V32.8926C18.3305 32.8926 17.3122 33.0238 16.7366 33.155V62.0233H19.1275Z" fill="#FBFBFB"/>
<path d="M23.8209 23.8383V1.39985C23.0239 1.26863 22.2269 1.22489 21.4299 1.18115V23.7071C22.2269 23.7071 23.0239 23.7071 23.8209 23.8383Z" fill="#FBFBFB"/>
<path d="M23.8209 62.0233V33.0675C23.0682 32.9801 22.2712 32.8926 21.4299 32.8926V62.067H23.8209V62.0233Z" fill="#FBFBFB"/>
</g>
<path d="M25.9902 38.7095H15.0096C14.4961 38.7095 14.0798 39.1207 14.0798 39.628V46.4951C14.0798 47.0024 14.4961 47.4137 15.0096 47.4137H25.9902C26.5037 47.4137 26.92 47.0024 26.92 46.4951V39.628C26.92 39.1207 26.5037 38.7095 25.9902 38.7095Z" fill="#191917"/>
<path d="M25.7247 39.2344H15.3198C14.8552 39.2344 14.4785 39.6065 14.4785 40.0654V46.1015C14.4785 46.5605 14.8552 46.9326 15.3198 46.9326H25.7247C26.1893 46.9326 26.566 46.5605 26.566 46.1015V40.0654C26.566 39.6065 26.1893 39.2344 25.7247 39.2344Z" fill="#484D51"/>
<path d="M4.87036 10.6288C4.87036 10.6288 5.88872 11.8098 6.81853 10.9787C7.74833 10.1039 9.74077 6.34231 9.29801 5.77369C8.85524 5.20508 5.26885 8.13564 4.87036 10.6725V10.6288Z" fill="#FBFBFB"/>
<path d="M4.87036 10.6288C4.87036 10.6288 5.88872 11.8098 6.81853 10.9787C7.74833 10.1039 9.74077 6.34231 9.29801 5.77369C8.85524 5.20508 5.26885 8.13564 4.87036 10.6725V10.6288Z" fill="#FBFBFB"/>
<path d="M36.218 10.6286C36.218 10.6286 35.1996 11.8096 34.2698 10.9785C33.34 10.1037 31.3476 6.34211 31.7904 5.7735C32.2331 5.16114 35.8195 8.13544 36.218 10.6723V10.6286Z" fill="#FBFBFB"/>
<path opacity="0.2" d="M10.4051 62.9415C10.4936 64.3849 10.5379 65.8283 10.8921 67.1842C11.202 68.5402 11.7334 69.8961 12.6189 70.9459C13.5044 71.9956 14.6999 72.7829 16.0282 73.1766C17.3565 73.614 18.7733 73.7452 20.1902 73.7889C21.607 73.7889 23.0239 73.614 24.3522 73.1766C25.6804 72.7829 26.8759 71.9956 27.85 70.9896C28.8241 69.9836 29.4882 68.7151 29.931 67.3592C30.3738 66.0033 30.5951 64.6036 30.6837 63.1602C30.7722 64.6036 30.6837 66.047 30.3295 67.4467C29.9753 68.8463 29.3554 70.246 28.337 71.3833C27.363 72.5205 26.0347 73.3515 24.6178 73.8327C23.201 74.3138 21.6956 74.4888 20.1902 74.5325C19.4375 74.5325 18.6848 74.4888 17.9763 74.3576C17.2236 74.2701 16.5152 74.0951 15.8068 73.8327C14.39 73.3515 13.0617 72.4767 12.1319 71.252C11.202 70.0711 10.715 68.6277 10.4936 67.1842C10.2722 65.7408 10.3165 64.2974 10.4051 62.854V62.9415Z" fill="#A3A3A3"/>
</g>
<defs>
<linearGradient id="paint0_linear_187_10468" x1="30.2408" y1="7.1295" x2="11.7731" y2="28.7848" gradientUnits="userSpaceOnUse">
<stop stop-color="#FEE3E3"/>
<stop offset="0.3" stop-color="#FB8C8C"/>
<stop offset="0.5" stop-color="#F84C4C"/>
<stop offset="0.6" stop-color="#F71616"/>
<stop offset="0.7" stop-color="#F61818"/>
<stop offset="0.8" stop-color="#F43030"/>
<stop offset="0.9" stop-color="#EC8282"/>
<stop offset="1" stop-color="#E4E4E4"/>
</linearGradient>
<linearGradient id="paint1_linear_187_10468" x1="15.674" y1="29.3058" x2="27.1416" y2="29.3058" gradientUnits="userSpaceOnUse">
<stop stop-color="white"/>
<stop offset="0.2" stop-color="#C4C4C4"/>
<stop offset="0.4" stop-color="#858585"/>
<stop offset="0.6" stop-color="#4F4F4F"/>
<stop offset="0.7" stop-color="#515151"/>
<stop offset="0.8" stop-color="#696969"/>
<stop offset="0.9" stop-color="#9A9A9A"/>
<stop offset="1" stop-color="#E4E4E4"/>
</linearGradient>
<linearGradient id="paint2_linear_187_10468" x1="10.405" y1="47.4138" x2="30.6394" y2="47.4138" gradientUnits="userSpaceOnUse">
<stop stop-color="#FEE3E3"/>
<stop offset="0.3" stop-color="#FB8C8C"/>
<stop offset="0.5" stop-color="#F84C4C"/>
<stop offset="0.6" stop-color="#F71616"/>
<stop offset="0.7" stop-color="#F61818"/>
<stop offset="0.8" stop-color="#F43030"/>
<stop offset="0.9" stop-color="#EC8282"/>
<stop offset="1" stop-color="#E4E4E4"/>
</linearGradient>
<linearGradient id="paint3_linear_187_10468" x1="5.00322" y1="8.66051" x2="4.78717" y2="24.5381" gradientUnits="userSpaceOnUse">
<stop stop-color="white"/>
<stop offset="1" stop-color="#F00031"/>
</linearGradient>
<linearGradient id="paint4_linear_187_10468" x1="36.0409" y1="8.66051" x2="36.257" y2="24.5381" gradientUnits="userSpaceOnUse">
<stop stop-color="white"/>
<stop offset="1" stop-color="#F00031"/>
</linearGradient>
<clipPath id="clip0_187_10468">
<rect width="41" height="80" fill="white"/>
</clipPath>
</defs>
</svg>
