<svg width="81" height="42" viewBox="0 0 81 42" fill="none" xmlns="http://www.w3.org/2000/svg">
<g clip-path="url(#clip0_187_10468)">
<path d="M18.0834 38.3121C18.0834 38.3121 18.0834 38.2678 18.0834 38.2235C18.0397 37.5594 17.4711 37.0723 16.815 37.1166C8.11077 37.825 3.99923 30.5637 3.12444 24.1436C3.03696 23.4352 2.94948 22.6382 2.90574 21.8412C2.90574 21.1328 2.90574 20.3801 2.90574 19.6717C2.90574 18.919 3.03696 18.122 3.16818 17.3693C4.21793 10.8607 8.32947 4.21921 16.815 4.88335C17.4711 4.92763 18.0397 4.44059 18.0834 3.77644C18.1272 3.1123 17.646 2.5367 16.9899 2.49243C8.67938 1.87256 2.33712 7.53994 0.80623 17.0151C0.67501 17.8564 0.587531 18.6976 0.543791 19.5389C0.500051 20.2916 0.500051 21.1328 0.543791 21.9298C0.543791 22.8153 0.631271 23.6566 0.76249 24.4535C1.81224 31.892 6.66735 40.3045 17.0337 39.5075C17.646 39.4633 18.1272 38.932 18.1272 38.3121H18.0834Z" fill="#2D2D2D"/>
<path d="M16.9024 38.312L26.044 37.5593L26.044 4.44048L16.9024 3.68778C8.19818 3.02363 3.21185 9.62082 1.98714 17.2364C1.85592 18.0333 1.76844 18.8303 1.7247 19.6273C1.68096 20.38 1.68096 21.1327 1.7247 21.8854C1.7247 22.6824 1.81218 23.4794 1.9434 24.2763C3.03689 32.1133 8.02322 38.9761 16.9024 38.2677V38.312Z" fill="#D11207"/>
<path d="M80.3251 24.3208C80.4126 23.5238 80.5 22.7268 80.5 21.9298C80.5 21.1771 80.5 20.4244 80.5 19.6717C80.5 18.8748 80.3688 18.0778 80.2813 17.2808C79.2316 9.70953 74.9451 3.15661 67.4219 3.68793L56.0933 4.48491L56.0933 37.6037L67.4219 38.4007C75.1201 38.932 79.4066 32.0691 80.3688 24.3208H80.3251Z" fill="#D11207"/>
<path d="M68.1216 3.64355C72.4956 3.64355 75.7323 6.03448 77.7443 9.66515C73.8515 8.42541 70.1336 6.87574 68.1216 3.64355Z" fill="#232323"/>
<path d="M68.1216 38.4449C72.4956 38.4449 75.7323 36.054 77.7443 32.4233C73.8515 33.6631 70.1336 35.2128 68.1216 38.4449Z" fill="#232323"/>
<path d="M22.4136 37.5592L22.4136 4.44043L64.9723 4.44043V37.5592L22.4136 37.5592Z" fill="#D11207"/>
<path d="M28.2747 34.0617L28.2747 7.98291L7.14836 10.4181C6.31731 10.4624 5.61747 10.9937 5.04886 11.8792C2.42447 15.7756 2.42447 26.3134 5.04886 30.1654C5.61747 31.0067 6.31731 31.538 7.14836 31.6265L28.2747 34.0617Z" fill="#F71616"/>
<path opacity="0.2" d="M28.2747 34.0617L28.2747 7.98291L7.14836 10.4181C6.31731 10.4624 5.61747 10.9937 5.04886 11.8792C2.42447 15.7756 2.42447 26.3134 5.04886 30.1654C5.61747 31.0067 6.31731 31.538 7.14836 31.6265L28.2747 34.0617Z" fill="url(#paint0_linear_187_10468)"/>
<path d="M48.8762 6.96436L48.8762 35.0356C77.9632 35.0356 77.9632 31.6263 77.9632 21.1328C77.9632 10.6393 77.9632 6.96436 48.8762 6.96436Z" fill="#BF0202"/>
<path opacity="0.5" d="M75.951 17.2363H80.2375C80.3687 18.0333 80.4124 18.8303 80.4562 19.6273H75.951C75.9073 18.8303 76.126 17.989 75.951 17.2363Z" fill="#FBFBFB"/>
<path opacity="0.5" d="M75.951 21.9297H80.4999C80.4999 22.7267 80.4125 23.5236 80.325 24.3206H75.8635C75.9947 23.5236 75.9073 22.7267 75.951 21.9297Z" fill="#FBFBFB"/>
<path d="M60.6421 33.3529C63.9226 33.1758 63.9226 8.95656 60.6421 8.77946C51.0194 6.91985 40.3906 6.52136 29.062 7.14123C26.4376 7.0084 24.9067 11.6131 24.3818 17.1034C24.1194 20.1142 24.1631 23.3907 24.5131 26.3129C25.1254 31.1833 26.6126 35.0797 29.0183 34.9468C40.1282 35.4782 50.7132 35.0797 60.5984 33.3086L60.6421 33.3529Z" fill="#484D51"/>
<path opacity="0.2" d="M35.3605 27.6416V16.2183L24.3818 17.1481C24.1194 20.1589 24.1631 23.4353 24.5131 26.3576L35.3605 27.6416Z" fill="url(#paint1_linear_187_10468)"/>
<path d="M35.7105 11.6135L27.0063 8.11564C26.7001 7.31866 27.7498 6.43313 29.0183 6.96445L37.1101 10.3295L35.7105 11.6135Z" fill="#B90A0C"/>
<path d="M35.7542 30.6523L27.0063 33.9731C26.7001 34.7701 27.7498 35.6556 29.0183 35.1243L36.9352 31.8035L35.7542 30.6523Z" fill="#B90A0C"/>
<path d="M63.6166 9.79785H61.8232L61.8232 32.2903H63.6166C75.0764 32.2903 76.1261 26.6672 76.1261 21.0441C76.1261 15.421 75.8637 9.79785 63.6166 9.79785Z" fill="#232323"/>
<path d="M38.7724 32.2463H61.3421C61.9107 32.2463 62.3481 31.7593 62.4793 31.1394C62.4793 31.0509 62.4793 30.9623 62.4793 30.8295V11.1708C62.4793 11.0822 62.4793 10.9936 62.4793 10.8608C62.3481 10.2409 61.9107 9.75391 61.3421 9.75391L38.7724 9.75391C37.8101 9.75391 36.9353 10.1524 36.2355 10.8608C35.7106 11.3921 35.2295 12.0563 34.8358 12.8975C33.8735 14.89 33.3924 17.6351 33.3049 20.4245C33.3049 20.7787 33.3049 21.1772 33.3049 21.5314C33.3487 24.3209 33.8735 27.066 34.8358 29.0584C35.2295 29.8554 35.6669 30.5638 36.2355 31.0952C36.9353 31.8036 37.7664 32.2021 38.7724 32.2021V32.2463Z" fill="#F71616"/>
<path opacity="0.2" d="M36.323 31.1391L62.5231 31.1391V10.9048L36.323 10.9048C36.323 10.9048 36.2792 10.9048 36.2355 10.9048C35.7106 11.4361 35.2295 12.1002 34.8358 12.9415C33.8735 14.9339 33.3924 17.6791 33.3049 20.4685C33.3049 20.8227 33.3049 21.2212 33.3049 21.5754C33.3487 24.3648 33.8735 27.11 34.8358 29.1024C35.2295 29.8994 35.6669 30.6078 36.2355 31.1391C36.2355 31.1391 36.2792 31.1391 36.323 31.1391Z" fill="url(#paint2_linear_187_10468)"/>
<path d="M30.7288 5.43164L31.8869 0.658819L31.2497 0.500398C30.4002 0.28917 29.5007 0.840598 29.292 1.70057L28.9164 3.24851C28.7077 4.10848 29.2525 5.01899 30.102 5.23022L30.7392 5.38864L30.7288 5.43164Z" fill="#F71616"/>
<path d="M31.2049 5.42667L32.29 0.954836C32.3108 0.868839 32.2788 0.81528 32.1938 0.794157L31.854 0.709666L30.7063 5.43949L31.0462 5.52398C31.1311 5.5451 31.184 5.51267 31.2049 5.42667Z" fill="#4D4D4D"/>
<path d="M30.9429 6.03473C30.9429 6.34467 28.6685 6.34467 28.6685 6.03473L28.7559 5.50341C28.7997 5.23775 29.0621 5.06065 29.3246 5.10493L30.593 5.41486C30.8554 5.45914 30.9867 5.7248 30.9429 5.99045V6.03473Z" fill="#F71616"/>
<path d="M30.0245 5.7246C30.3306 5.7246 30.6368 5.45895 30.6368 5.10473C30.6368 4.75052 30.3744 4.48486 30.0245 4.48486C29.6745 4.48486 29.4121 4.75052 29.4121 5.10473C29.4121 5.45895 29.6745 5.7246 30.0245 5.7246Z" fill="#F71616"/>
<path d="M28.9031 38.6559L29.2787 40.2039C29.4873 41.0638 30.3868 41.6152 31.2364 41.404L31.8735 41.2456L30.7154 36.4728L30.0782 36.6312C29.2287 36.8424 28.684 37.7529 28.8926 38.6129L28.9031 38.6559Z" fill="#F71616"/>
<path d="M30.7297 36.5259L31.8878 41.2987L32.2277 41.2142C32.3126 41.1931 32.3447 41.1395 32.3238 41.0535L31.2387 36.5817C31.2179 36.4957 31.1649 36.4633 31.08 36.4844L30.7402 36.5689L30.7297 36.5259Z" fill="#4D4D4D"/>
<path d="M30.9429 35.9654C30.9429 35.5226 28.6685 35.5226 28.6685 35.9654L28.7559 36.4967C28.7997 36.7624 29.0621 36.9395 29.3246 36.8952L30.593 36.5852C30.8554 36.541 30.9867 36.2753 30.9429 36.0096V35.9654Z" fill="#F71616"/>
<path d="M30.243 37.2495C30.5492 37.2495 30.8553 36.9838 30.8553 36.6296C30.8553 36.2754 30.5929 36.0098 30.243 36.0098C29.8931 36.0098 29.6306 36.2754 29.6306 36.6296C29.6306 36.9838 29.8931 37.2495 30.243 37.2495Z" fill="#F71616"/>
<g opacity="0.5">
<path opacity="0.5" d="M15.9839 6.25592C19.5706 6.25592 25.4317 6.4773 25.4317 5.99026C25.4317 5.50322 19.6143 4.48486 15.9839 4.48486C12.3535 4.48486 12.3535 5.50322 12.3535 5.99026C12.3535 6.4773 12.3535 6.25592 15.9839 6.25592Z" fill="url(#paint3_linear_187_10468)"/>
<path opacity="0.5" d="M15.9839 35.7885C19.5706 35.7885 25.4317 35.5671 25.4317 36.0541C25.4317 36.5412 19.6143 37.5595 15.9839 37.5595C12.3535 37.5595 12.3535 36.5412 12.3535 36.0541C12.3535 35.5671 12.3535 35.7885 15.9839 35.7885Z" fill="url(#paint4_linear_187_10468)"/>
</g>
<path d="M45.027 36.6296C45.027 36.364 44.8083 36.1426 44.5458 36.1426H41.7902C41.5278 36.1426 41.3091 36.364 41.3091 36.6296C41.3091 36.8953 41.5278 37.1167 41.7902 37.1167H44.5458C44.8083 37.1167 45.027 36.8953 45.027 36.6296Z" fill="#E5E5E5"/>
<path d="M45.027 5.72483C45.027 5.45918 44.8083 5.23779 44.5458 5.23779L41.7902 5.23779C41.5278 5.23779 41.3091 5.45918 41.3091 5.72483C41.3091 5.99049 41.5278 6.21187 41.7902 6.21187L44.5458 6.21187C44.8083 6.21187 45.027 5.99049 45.027 5.72483Z" fill="#E5E5E5"/>
<path d="M27.0062 7.98275C26.9188 8.15986 21.3638 14.5357 21.3638 14.5357L3.86792 16.2182L21.9324 15.6869L25.0817 12.0562L27.0062 7.93848V7.98275Z" fill="#D11207"/>
<path d="M27.0062 34.0616C26.9188 33.8845 21.3638 27.5087 21.3638 27.5087L3.86792 25.8262L21.9324 26.3575L25.0817 29.9882L27.0062 34.1059V34.0616Z" fill="#D11207"/>
<g opacity="0.5">
<path d="M24.2506 19.6273L1.72461 19.6273C1.72461 18.8303 1.85583 18.0333 1.98705 17.2363L24.3818 17.2363C24.2506 18.0333 24.2943 18.8303 24.2506 19.6273Z" fill="#FBFBFB"/>
<path d="M62.523 19.6273L33.3923 19.6273C33.3923 18.8303 33.5236 17.8119 33.6548 17.2363L62.523 17.2363V19.6273Z" fill="#FBFBFB"/>
<path d="M24.3381 24.3206L1.89961 24.3206C1.76839 23.5236 1.72465 22.7267 1.68091 21.9297L24.2069 21.9297C24.2069 22.7267 24.2069 23.5236 24.3381 24.3206Z" fill="#FBFBFB"/>
<path d="M62.523 24.3206L33.5673 24.3206C33.4798 23.5679 33.3923 22.7709 33.3923 21.9297L62.5667 21.9297V24.3206H62.523Z" fill="#FBFBFB"/>
</g>
<path d="M39.2097 26.4904V15.5099C39.2097 14.9964 39.621 14.5801 40.1283 14.5801L46.9954 14.5801C47.5027 14.5801 47.9139 14.9964 47.9139 15.5099V26.4904C47.9139 27.004 47.5027 27.4203 46.9954 27.4203H40.1283C39.621 27.4203 39.2097 27.004 39.2097 26.4904Z" fill="#191917"/>
<path d="M39.7346 26.2247V15.8198C39.7346 15.3552 40.1067 14.9785 40.5657 14.9785L46.6018 14.9785C47.0607 14.9785 47.4328 15.3552 47.4328 15.8198V26.2247C47.4328 26.6893 47.0607 27.066 46.6018 27.066H40.5657C40.1067 27.066 39.7346 26.6893 39.7346 26.2247Z" fill="#484D51"/>
<path d="M11.1288 5.37061C11.1288 5.37061 12.3098 6.38896 11.4787 7.31877C10.6039 8.24857 6.84231 10.241 6.27369 9.79825C5.70508 9.35549 8.63564 5.76909 11.1725 5.37061H11.1288Z" fill="#FBFBFB"/>
<path d="M11.1288 5.37061C11.1288 5.37061 12.3098 6.38896 11.4787 7.31877C10.6039 8.24857 6.84231 10.241 6.27369 9.79825C5.70508 9.35549 8.63564 5.76909 11.1725 5.37061H11.1288Z" fill="#FBFBFB"/>
<path d="M11.1289 36.7185C11.1289 36.7185 12.3098 35.7001 11.4788 34.7703C10.604 33.8405 6.84236 31.8481 6.27374 32.2908C5.66138 32.7336 8.63569 36.32 11.1726 36.7185H11.1289Z" fill="#FBFBFB"/>
<path opacity="0.2" d="M63.4415 10.9051C64.8849 10.9936 66.3283 11.0379 67.6842 11.3921C69.0402 11.702 70.3961 12.2334 71.4459 13.1189C72.4956 14.0044 73.2829 15.1999 73.6766 16.5282C74.114 17.8565 74.2452 19.2733 74.2889 20.6902C74.2889 22.107 74.114 23.5239 73.6766 24.8522C73.2829 26.1804 72.4956 27.3759 71.4896 28.35C70.4836 29.3241 69.2151 29.9882 67.8592 30.431C66.5033 30.8738 65.1036 31.0951 63.6602 31.1837C65.1036 31.2722 66.547 31.1837 67.9467 30.8295C69.3463 30.4753 70.746 29.8554 71.8833 28.837C73.0205 27.863 73.8515 26.5347 74.3327 25.1178C74.8138 23.701 74.9888 22.1956 75.0325 20.6902C75.0325 19.9375 74.9888 19.1848 74.8576 18.4763C74.7701 17.7236 74.5951 17.0152 74.3327 16.3068C73.8515 14.89 72.9767 13.5617 71.752 12.6319C70.5711 11.702 69.1277 11.215 67.6842 10.9936C66.2408 10.7722 64.7974 10.8165 63.354 10.9051H63.4415Z" fill="#A3A3A3"/>
</g>
<defs>
<linearGradient id="paint0_linear_187_10468" x1="7.6295" y1="30.741" x2="29.2848" y2="12.2733" gradientUnits="userSpaceOnUse">
<stop stop-color="#FEE3E3"/>
<stop offset="0.3" stop-color="#FB8C8C"/>
<stop offset="0.5" stop-color="#F84C4C"/>
<stop offset="0.6" stop-color="#F71616"/>
<stop offset="0.7" stop-color="#F61818"/>
<stop offset="0.8" stop-color="#F43030"/>
<stop offset="0.9" stop-color="#EC8282"/>
<stop offset="1" stop-color="#E4E4E4"/>
</linearGradient>
<linearGradient id="paint1_linear_187_10468" x1="29.8056" y1="16.174" x2="29.8056" y2="27.6416" gradientUnits="userSpaceOnUse">
<stop stop-color="white"/>
<stop offset="0.2" stop-color="#C4C4C4"/>
<stop offset="0.4" stop-color="#858585"/>
<stop offset="0.6" stop-color="#4F4F4F"/>
<stop offset="0.7" stop-color="#515151"/>
<stop offset="0.8" stop-color="#696969"/>
<stop offset="0.9" stop-color="#9A9A9A"/>
<stop offset="1" stop-color="#E4E4E4"/>
</linearGradient>
<linearGradient id="paint2_linear_187_10468" x1="47.914" y1="10.9048" x2="47.914" y2="31.1391" gradientUnits="userSpaceOnUse">
<stop stop-color="#FEE3E3"/>
<stop offset="0.3" stop-color="#FB8C8C"/>
<stop offset="0.5" stop-color="#F84C4C"/>
<stop offset="0.6" stop-color="#F71616"/>
<stop offset="0.7" stop-color="#F61818"/>
<stop offset="0.8" stop-color="#F43030"/>
<stop offset="0.9" stop-color="#EC8282"/>
<stop offset="1" stop-color="#E4E4E4"/>
</linearGradient>
<linearGradient id="paint3_linear_187_10468" x1="9.16051" y1="5.50322" x2="25.0381" y2="5.28717" gradientUnits="userSpaceOnUse">
<stop stop-color="white"/>
<stop offset="1" stop-color="#F00031"/>
</linearGradient>
<linearGradient id="paint4_linear_187_10468" x1="9.16051" y1="36.5412" x2="25.0381" y2="36.7572" gradientUnits="userSpaceOnUse">
<stop stop-color="white"/>
<stop offset="1" stop-color="#F00031"/>
</linearGradient>
<clipPath id="clip0_187_10468">
<rect width="41" height="80" fill="white" transform="matrix(0 1 1 0 0.5 0.5)"/>
</clipPath>
</defs>
</svg>
