<svg width="81" height="42" viewBox="0 0 81 42" fill="none" xmlns="http://www.w3.org/2000/svg">
<g clip-path="url(#clip0_187_10468)">
<path d="M62.9166 3.68792C62.9166 3.68792 62.9166 3.7322 62.9166 3.77647C62.9603 4.44062 63.5289 4.92766 64.185 4.88339C72.8892 4.17496 77.0008 11.4363 77.8756 17.8564C77.963 18.5648 78.0505 19.3618 78.0943 20.1588C78.0943 20.8672 78.0943 21.6199 78.0943 22.3283C78.0943 23.081 77.963 23.878 77.8318 24.6307C76.7821 31.1393 72.6705 37.7808 64.185 37.1166C63.5289 37.0724 62.9603 37.5594 62.9166 38.2236C62.8728 38.8877 63.354 39.4633 64.0101 39.5076C72.3206 40.1274 78.6629 34.4601 80.1938 24.9849C80.325 24.1436 80.4125 23.3024 80.4562 22.4611C80.4999 21.7084 80.4999 20.8672 80.4562 20.0702C80.4562 19.1847 80.3687 18.3434 80.2375 17.5465C79.1878 10.108 74.3326 1.69548 63.9663 2.49246C63.354 2.53673 62.8728 3.06805 62.8728 3.68792H62.9166Z" fill="#2D2D2D"/>
<path d="M64.0976 3.68803L54.956 4.44073V37.5595L64.0976 38.3122C72.8018 38.9764 77.7881 32.3792 79.0129 24.7636C79.1441 23.9667 79.2316 23.1697 79.2753 22.3727C79.319 21.62 79.319 20.8673 79.2753 20.1146C79.2753 19.3176 79.1878 18.5206 79.0566 17.7237C77.9631 9.88674 72.9768 3.02388 64.0976 3.73231V3.68803Z" fill="#D11207"/>
<path d="M0.674916 17.6792C0.587436 18.4762 0.499959 19.2732 0.499959 20.0702C0.499959 20.8229 0.499959 21.5756 0.499959 22.3283C0.499959 23.1252 0.631178 23.9222 0.718658 24.7192C1.76841 32.2905 6.0549 38.8434 13.5781 38.3121L24.9067 37.5151L24.9067 4.3963L13.5781 3.59933C5.87995 3.06801 1.59345 9.93086 0.631173 17.6792H0.674916Z" fill="#D11207"/>
<path d="M12.8784 38.3564C8.50444 38.3564 5.2677 35.9655 3.25567 32.3348C7.14851 33.5746 10.8664 35.1243 12.8784 38.3564Z" fill="#232323"/>
<path d="M12.8784 3.55506C8.50444 3.55506 5.2677 5.94599 3.25567 9.57666C7.14851 8.33692 10.8664 6.78724 12.8784 3.55506Z" fill="#232323"/>
<path d="M58.5864 4.44078V37.5596H16.0277V4.44078H58.5864Z" fill="#D11207"/>
<path d="M52.7253 7.93826V34.0171L73.8516 31.5819C74.6827 31.5376 75.3825 31.0063 75.9511 30.1208C78.5755 26.2244 78.5755 15.6866 75.9511 11.8346C75.3825 10.9933 74.6827 10.462 73.8516 10.3735L52.7253 7.93826Z" fill="#F71616"/>
<path opacity="0.2" d="M52.7253 7.93826V34.0171L73.8516 31.5819C74.6827 31.5376 75.3825 31.0063 75.9511 30.1208C78.5755 26.2244 78.5755 15.6866 75.9511 11.8346C75.3825 10.9933 74.6827 10.462 73.8516 10.3735L52.7253 7.93826Z" fill="url(#paint0_linear_187_10468)"/>
<path d="M32.1238 35.0356V6.96437C3.03684 6.96437 3.03684 10.3737 3.03684 20.8672C3.03684 31.3607 3.03684 35.0356 32.1238 35.0356Z" fill="#BF0202"/>
<path opacity="0.5" d="M5.04901 24.7637H0.762512C0.631293 23.9667 0.587553 23.1697 0.543813 22.3727H5.04901C5.09275 23.1697 4.87405 24.011 5.04901 24.7637Z" fill="#FBFBFB"/>
<path opacity="0.5" d="M5.049 20.0703H0.500065C0.500065 19.2733 0.587542 18.4764 0.675022 17.6794H5.13647C5.00526 18.4764 5.09274 19.2733 5.049 20.0703Z" fill="#FBFBFB"/>
<path d="M20.3579 8.64711C17.0774 8.82422 17.0774 33.0434 20.3579 33.2205C29.9806 35.0802 40.6094 35.4786 51.938 34.8588C54.5624 34.9916 56.0933 30.3869 56.6182 24.8966C56.8806 21.8858 56.8369 18.6093 56.4869 15.6871C55.8746 10.8167 54.3874 6.92032 51.9817 7.05315C40.8718 6.52184 30.2868 6.92033 20.4016 8.69138L20.3579 8.64711Z" fill="#484D51"/>
<path opacity="0.2" d="M45.6395 14.3584V25.7817L56.6182 24.8519C56.8806 21.8411 56.8369 18.5647 56.4869 15.6424L45.6395 14.3584Z" fill="url(#paint1_linear_187_10468)"/>
<path d="M45.2895 30.3865L53.9937 33.8844C54.2999 34.6813 53.2502 35.5669 51.9817 35.0355L43.8899 31.6705L45.2895 30.3865Z" fill="#B90A0C"/>
<path d="M45.2458 11.3477L53.9937 8.02692C54.2999 7.22995 53.2502 6.34442 51.9817 6.87573L44.0648 10.1965L45.2458 11.3477Z" fill="#B90A0C"/>
<path d="M17.3834 32.2021H19.1768V9.7097H17.3834C5.92361 9.7097 4.87386 15.3328 4.87386 20.9559C4.87386 26.579 5.1363 32.2021 17.3834 32.2021Z" fill="#232323"/>
<path d="M42.2276 9.75366H19.6579C19.0893 9.75366 18.6519 10.2407 18.5207 10.8606C18.5207 10.9491 18.5207 11.0377 18.5207 11.1705V30.8292C18.5207 30.9178 18.5207 31.0064 18.5207 31.1392C18.6519 31.7591 19.0893 32.2461 19.6579 32.2461H42.2276C43.1899 32.2461 44.0647 31.8476 44.7645 31.1392C45.2894 30.6079 45.7705 29.9437 46.1642 29.1025C47.1265 27.11 47.6076 24.3649 47.6951 21.5755C47.6951 21.2213 47.6951 20.8228 47.6951 20.4686C47.6513 17.6791 47.1265 14.934 46.1642 12.9416C45.7705 12.1446 45.3331 11.4362 44.7645 10.9048C44.0647 10.1964 43.2336 9.79793 42.2276 9.79793V9.75366Z" fill="#F71616"/>
<path opacity="0.2" d="M44.677 10.8609L18.4769 10.8609V31.0952L44.677 31.0952C44.677 31.0952 44.7208 31.0952 44.7645 31.0952C45.2894 30.5639 45.7705 29.8998 46.1642 29.0585C47.1265 27.0661 47.6076 24.3209 47.6951 21.5315C47.6951 21.1773 47.6951 20.7788 47.6951 20.4246C47.6513 17.6352 47.1265 14.89 46.1642 12.8976C45.7705 12.1006 45.3331 11.3922 44.7645 10.8609C44.7645 10.8609 44.7208 10.8609 44.677 10.8609Z" fill="url(#paint2_linear_187_10468)"/>
<path d="M50.2712 36.5684L49.1131 41.3412L49.7503 41.4996C50.5998 41.7108 51.4993 41.1594 51.708 40.2994L52.0836 38.7515C52.2923 37.8915 51.7475 36.981 50.898 36.7698L50.2608 36.6114L50.2712 36.5684Z" fill="#F71616"/>
<path d="M49.7951 36.5733L48.71 41.0452C48.6892 41.1312 48.7212 41.1847 48.8062 41.2058L49.146 41.2903L50.2937 36.5605L49.9538 36.476C49.8689 36.4549 49.816 36.4873 49.7951 36.5733Z" fill="#4D4D4D"/>
<path d="M50.0571 35.9653C50.0571 35.6553 52.3315 35.6553 52.3315 35.9653L52.2441 36.4966C52.2003 36.7622 51.9379 36.9394 51.6754 36.8951L50.407 36.5851C50.1446 36.5409 50.0133 36.2752 50.0571 36.0095V35.9653Z" fill="#F71616"/>
<path d="M50.9755 36.2754C50.6694 36.2754 50.3632 36.5411 50.3632 36.8953C50.3632 37.2495 50.6256 37.5151 50.9755 37.5151C51.3255 37.5151 51.5879 37.2495 51.5879 36.8953C51.5879 36.5411 51.3255 36.2754 50.9755 36.2754Z" fill="#F71616"/>
<path d="M52.0969 3.34409L51.7213 1.79615C51.5127 0.936181 50.6132 0.384751 49.7636 0.59598L49.1265 0.754401L50.2846 5.52722L50.9218 5.3688C51.7713 5.15757 52.316 4.24706 52.1074 3.38709L52.0969 3.34409Z" fill="#F71616"/>
<path d="M50.2703 5.47412L49.1122 0.701301L48.7723 0.785791C48.6874 0.806914 48.6553 0.860472 48.6762 0.946469L49.7613 5.4183C49.7821 5.5043 49.8351 5.53674 49.92 5.51561L50.2598 5.43112L50.2703 5.47412Z" fill="#4D4D4D"/>
<path d="M50.0571 6.03463C50.0571 6.47739 52.3315 6.47739 52.3315 6.03463L52.2441 5.50331C52.2003 5.23765 51.9379 5.06054 51.6754 5.10482L50.407 5.41475C50.1446 5.45903 50.0133 5.72469 50.0571 5.99035V6.03463Z" fill="#F71616"/>
<path d="M50.757 4.75049C50.4508 4.75049 50.1447 5.01615 50.1447 5.37036C50.1447 5.72457 50.4071 5.99023 50.757 5.99023C51.1069 5.99023 51.3694 5.72457 51.3694 5.37036C51.3694 5.01615 51.1069 4.75049 50.757 4.75049Z" fill="#F71616"/>
<g opacity="0.5">
<path opacity="0.5" d="M65.0161 35.7441C61.4294 35.7441 55.5683 35.5227 55.5683 36.0097C55.5683 36.4968 61.3857 37.5151 65.0161 37.5151C68.6465 37.5151 68.6465 36.4968 68.6465 36.0097C68.6465 35.5227 68.6465 35.7441 65.0161 35.7441Z" fill="url(#paint3_linear_187_10468)"/>
<path opacity="0.5" d="M65.0161 6.21152C61.4294 6.21152 55.5683 6.4329 55.5683 5.94586C55.5683 5.45882 61.3857 4.44046 65.0161 4.44046C68.6465 4.44046 68.6465 5.45882 68.6465 5.94586C68.6465 6.4329 68.6465 6.21152 65.0161 6.21152Z" fill="url(#paint4_linear_187_10468)"/>
</g>
<path d="M35.973 5.37038C35.973 5.63604 36.1917 5.85742 36.4542 5.85742H39.2098C39.4722 5.85742 39.6909 5.63604 39.6909 5.37038C39.6909 5.10472 39.4722 4.88334 39.2098 4.88334H36.4542C36.1917 4.88334 35.973 5.10472 35.973 5.37038Z" fill="#E5E5E5"/>
<path d="M35.973 36.2752C35.973 36.5408 36.1917 36.7622 36.4542 36.7622H39.2098C39.4722 36.7622 39.6909 36.5408 39.6909 36.2752C39.6909 36.0095 39.4722 35.7881 39.2098 35.7881H36.4542C36.1917 35.7881 35.973 36.0095 35.973 36.2752Z" fill="#E5E5E5"/>
<path d="M53.9938 34.0172C54.0812 33.8401 59.6362 27.4643 59.6362 27.4643L77.1321 25.7818L59.0676 26.3131L55.9183 29.9438L53.9938 34.0615V34.0172Z" fill="#D11207"/>
<path d="M53.9938 7.93841C54.0812 8.11551 59.6362 14.4913 59.6362 14.4913L77.1321 16.1738L59.0676 15.6425L55.9183 12.0118L53.9938 7.89413V7.93841Z" fill="#D11207"/>
<g opacity="0.5">
<path d="M56.7494 22.3727H79.2754C79.2754 23.1697 79.1442 23.9667 79.013 24.7637H56.6182C56.7494 23.9667 56.7057 23.1697 56.7494 22.3727Z" fill="#FBFBFB"/>
<path d="M18.477 22.3727H47.6077C47.6077 23.1697 47.4764 24.1881 47.3452 24.7637L18.477 24.7637V22.3727Z" fill="#FBFBFB"/>
<path d="M56.6619 17.6794H79.1004C79.2316 18.4764 79.2754 19.2733 79.3191 20.0703H56.7931C56.7931 19.2733 56.7931 18.4764 56.6619 17.6794Z" fill="#FBFBFB"/>
<path d="M18.477 17.6794H47.4327C47.5202 18.4321 47.6077 19.2291 47.6077 20.0703L18.4333 20.0703V17.6794H18.477Z" fill="#FBFBFB"/>
</g>
<path d="M41.7903 15.5096V26.4901C41.7903 27.0036 41.379 27.4199 40.8717 27.4199H34.0046C33.4973 27.4199 33.0861 27.0036 33.0861 26.4901V15.5096C33.0861 14.996 33.4973 14.5797 34.0046 14.5797H40.8717C41.379 14.5797 41.7903 14.996 41.7903 15.5096Z" fill="#191917"/>
<path d="M41.2654 15.7753V26.1802C41.2654 26.6448 40.8933 27.0215 40.4343 27.0215H34.3982C33.9393 27.0215 33.5672 26.6448 33.5672 26.1802V15.7753C33.5672 15.3107 33.9393 14.934 34.3982 14.934H40.4343C40.8933 14.934 41.2654 15.3107 41.2654 15.7753Z" fill="#484D51"/>
<path d="M69.8712 36.6294C69.8712 36.6294 68.6902 35.611 69.5213 34.6812C70.3961 33.7514 74.1577 31.759 74.7263 32.2017C75.2949 32.6445 72.3644 36.2309 69.8275 36.6294H69.8712Z" fill="#FBFBFB"/>
<path d="M69.8712 36.6294C69.8712 36.6294 68.6902 35.611 69.5213 34.6812C70.3961 33.7514 74.1577 31.759 74.7263 32.2017C75.2949 32.6445 72.3644 36.2309 69.8275 36.6294H69.8712Z" fill="#FBFBFB"/>
<path d="M69.8711 5.28151C69.8711 5.28151 68.6902 6.29987 69.5212 7.22968C70.396 8.15948 74.1576 10.1519 74.7263 9.70916C75.3386 9.26639 72.3643 5.68 69.8274 5.28151H69.8711Z" fill="#FBFBFB"/>
<path opacity="0.2" d="M17.5585 31.0949C16.1151 31.0064 14.6717 30.9621 13.3158 30.6079C11.9598 30.298 10.6039 29.7666 9.55414 28.8811C8.50439 27.9956 7.71707 26.8001 7.32341 25.4718C6.88602 24.1435 6.7548 22.7267 6.71106 21.3098C6.71106 19.893 6.88602 18.4761 7.32341 17.1478C7.71707 15.8196 8.50439 14.6241 9.5104 13.65C10.5164 12.6759 11.7849 12.0118 13.1408 11.569C14.4967 11.1262 15.8964 10.9049 17.3398 10.8163C15.8964 10.7278 14.453 10.8163 13.0533 11.1705C11.6537 11.5247 10.254 12.1446 9.11675 13.163C7.97951 14.137 7.14845 15.4653 6.66732 16.8822C6.18618 18.299 6.01122 19.8044 5.96748 21.3098C5.96748 22.0625 6.01122 22.8152 6.14244 23.5237C6.22992 24.2764 6.40488 24.9848 6.66732 25.6932C7.14845 27.11 8.02325 28.4383 9.24797 29.3681C10.4289 30.298 11.8723 30.785 13.3158 31.0064C14.7592 31.2278 16.2026 31.1835 17.646 31.0949H17.5585Z" fill="#A3A3A3"/>
</g>
<defs>
<linearGradient id="paint0_linear_187_10468" x1="73.3705" y1="11.259" x2="51.7152" y2="29.7267" gradientUnits="userSpaceOnUse">
<stop stop-color="#FEE3E3"/>
<stop offset="0.3" stop-color="#FB8C8C"/>
<stop offset="0.5" stop-color="#F84C4C"/>
<stop offset="0.6" stop-color="#F71616"/>
<stop offset="0.7" stop-color="#F61818"/>
<stop offset="0.8" stop-color="#F43030"/>
<stop offset="0.9" stop-color="#EC8282"/>
<stop offset="1" stop-color="#E4E4E4"/>
</linearGradient>
<linearGradient id="paint1_linear_187_10468" x1="51.1944" y1="25.826" x2="51.1944" y2="14.3584" gradientUnits="userSpaceOnUse">
<stop stop-color="white"/>
<stop offset="0.2" stop-color="#C4C4C4"/>
<stop offset="0.4" stop-color="#858585"/>
<stop offset="0.6" stop-color="#4F4F4F"/>
<stop offset="0.7" stop-color="#515151"/>
<stop offset="0.8" stop-color="#696969"/>
<stop offset="0.9" stop-color="#9A9A9A"/>
<stop offset="1" stop-color="#E4E4E4"/>
</linearGradient>
<linearGradient id="paint2_linear_187_10468" x1="33.086" y1="31.0952" x2="33.086" y2="10.8609" gradientUnits="userSpaceOnUse">
<stop stop-color="#FEE3E3"/>
<stop offset="0.3" stop-color="#FB8C8C"/>
<stop offset="0.5" stop-color="#F84C4C"/>
<stop offset="0.6" stop-color="#F71616"/>
<stop offset="0.7" stop-color="#F61818"/>
<stop offset="0.8" stop-color="#F43030"/>
<stop offset="0.9" stop-color="#EC8282"/>
<stop offset="1" stop-color="#E4E4E4"/>
</linearGradient>
<linearGradient id="paint3_linear_187_10468" x1="71.8395" y1="36.4968" x2="55.9619" y2="36.7128" gradientUnits="userSpaceOnUse">
<stop stop-color="white"/>
<stop offset="1" stop-color="#F00031"/>
</linearGradient>
<linearGradient id="paint4_linear_187_10468" x1="71.8395" y1="5.45882" x2="55.9619" y2="5.24277" gradientUnits="userSpaceOnUse">
<stop stop-color="white"/>
<stop offset="1" stop-color="#F00031"/>
</linearGradient>
<clipPath id="clip0_187_10468">
<rect width="41" height="80" fill="white" transform="matrix(0 -1 -1 0 80.5 41.5)"/>
</clipPath>
</defs>
</svg>
