<svg width="41" height="80" viewBox="0 0 41 80" fill="none" xmlns="http://www.w3.org/2000/svg">
<g clip-path="url(#clip0_187_10468)">
<path d="M37.8121 62.4168C37.8121 62.4168 37.7678 62.4168 37.7235 62.4168C37.0594 62.4606 36.5723 63.0292 36.6166 63.6853C37.325 72.3895 30.0637 76.501 23.6436 77.3758C22.9352 77.4633 22.1382 77.5508 21.3412 77.5945C20.6328 77.5945 19.8801 77.5945 19.1717 77.5945C18.419 77.5945 17.622 77.4633 16.8693 77.3321C10.3607 76.2823 3.71921 72.1708 4.38335 63.6853C4.42763 63.0292 3.94059 62.4606 3.27644 62.4168C2.6123 62.3731 2.0367 62.8542 1.99243 63.5103C1.37256 71.8209 7.03994 78.1631 16.5151 79.694C17.3564 79.8252 18.1976 79.9127 19.0389 79.9565C19.7916 80.0002 20.6328 80.0002 21.4298 79.9565C22.3153 79.9565 23.1566 79.869 23.9535 79.7378C31.392 78.688 39.8045 73.8329 39.0075 63.4666C38.9633 62.8542 38.432 62.3731 37.8121 62.3731V62.4168Z" fill="#2D2D2D"/>
<path d="M37.8122 63.5976L37.0595 54.456H3.94072L3.18802 63.5976C2.52387 72.3018 9.12107 77.2881 16.7366 78.5129C17.5336 78.6441 18.3306 78.7316 19.1275 78.7753C19.8802 78.819 20.6329 78.819 21.3856 78.7753C22.1826 78.7753 22.9796 78.6878 23.7766 78.5566C31.6135 77.4631 38.4764 72.4768 37.7679 63.5976H37.8122Z" fill="#D11207"/>
<path d="M23.8208 0.174916C23.0238 0.0874361 22.2268 -4.07641e-05 21.4298 -4.07641e-05C20.6771 -4.07641e-05 19.9244 -4.07641e-05 19.1717 -4.07641e-05C18.3748 -4.07641e-05 17.5778 0.131178 16.7808 0.218658C9.20953 1.26841 2.65661 5.5549 3.18793 13.0781L3.98491 24.4067H37.1037L37.9007 13.0781C38.432 5.37995 31.5691 1.09345 23.8208 0.131173V0.174916Z" fill="#D11207"/>
<path d="M3.14355 12.3784C3.14355 8.00444 5.53448 4.7677 9.16515 2.75567C7.92541 6.64851 6.37574 10.3664 3.14355 12.3784Z" fill="#232323"/>
<path d="M37.9449 12.3784C37.9449 8.00444 35.554 4.7677 31.9233 2.75567C33.1631 6.64851 34.7128 10.3664 37.9449 12.3784Z" fill="#232323"/>
<path d="M37.0595 58.0864H3.94067V15.5277H37.0595V58.0864Z" fill="#D11207"/>
<path d="M33.5615 52.2253H7.48267L9.91787 73.3516C9.96215 74.1827 10.4935 74.8825 11.379 75.4511C15.2753 78.0755 25.8131 78.0755 29.6652 75.4511C30.5064 74.8825 31.0377 74.1827 31.1263 73.3516L33.5615 52.2253Z" fill="#F71616"/>
<path opacity="0.2" d="M33.5615 52.2253H7.48267L9.91787 73.3516C9.96215 74.1827 10.4935 74.8825 11.379 75.4511C15.2753 78.0755 25.8131 78.0755 29.6652 75.4511C30.5064 74.8825 31.0377 74.1827 31.1263 73.3516L33.5615 52.2253Z" fill="url(#paint0_linear_187_10468)"/>
<path d="M6.46436 31.624H34.5356C34.5356 2.53709 31.1263 2.53709 20.6328 2.53709C10.1393 2.53709 6.46436 2.53709 6.46436 31.624Z" fill="#BF0202"/>
<path opacity="0.5" d="M16.7366 4.54876V0.262268C17.5335 0.131049 18.3305 0.087309 19.1275 0.0435692V4.54876C18.3305 4.5925 17.4893 4.37381 16.7366 4.54876Z" fill="#FBFBFB"/>
<path opacity="0.5" d="M21.4297 4.54875V-0.000178815C22.2267 -0.000178815 23.0236 0.087298 23.8206 0.174778V4.63623C23.0236 4.50501 22.2267 4.59249 21.4297 4.54875Z" fill="#FBFBFB"/>
<path d="M32.8531 19.8577C32.676 16.5772 8.45681 16.5772 8.2797 19.8577C6.42009 29.4804 6.0216 40.1092 6.64147 51.4378C6.50864 54.0621 11.1134 55.593 16.6037 56.1179C19.6145 56.3803 22.8909 56.3366 25.8132 55.9867C30.6836 55.3743 34.5799 53.8872 34.4471 51.4815C34.9784 40.3716 34.5799 29.7866 32.8089 19.9014L32.8531 19.8577Z" fill="#484D51"/>
<path opacity="0.2" d="M27.1416 45.1392H15.7183L16.6481 56.1179C19.6589 56.3803 22.9353 56.3366 25.8576 55.9867L27.1416 45.1392Z" fill="url(#paint1_linear_187_10468)"/>
<path d="M11.1135 44.7895L7.61564 53.4937C6.81866 53.7999 5.93313 52.7502 6.46445 51.4817L9.82946 43.3899L11.1135 44.7895Z" fill="#B90A0C"/>
<path d="M30.1523 44.7458L33.4731 53.4937C34.2701 53.7999 35.1556 52.7502 34.6243 51.4817L31.3035 43.5648L30.1523 44.7458Z" fill="#B90A0C"/>
<path d="M9.2981 16.8834V18.6768H31.7905V16.8834C31.7905 5.42361 26.1674 4.37386 20.5443 4.37386C14.9212 4.37386 9.2981 4.6363 9.2981 16.8834Z" fill="#232323"/>
<path d="M31.7461 41.7278V19.1581C31.7461 18.5895 31.2591 18.1521 30.6392 18.0209C30.5506 18.0209 30.4621 18.0209 30.3293 18.0209H10.6705C10.582 18.0209 10.4934 18.0209 10.3606 18.0209C9.7407 18.1521 9.25366 18.5895 9.25366 19.1581V41.7278C9.25366 42.6901 9.65215 43.5649 10.3606 44.2648C10.8919 44.7896 11.556 45.2708 12.3973 45.6644C14.3897 46.6267 17.1349 47.1078 19.9243 47.1953C20.2785 47.1953 20.677 47.1953 21.0312 47.1953C23.8206 47.1516 26.5658 46.6267 28.5582 45.6644C29.3552 45.2708 30.0636 44.8334 30.5949 44.2648C31.3033 43.5649 31.7018 42.7339 31.7018 41.7278H31.7461Z" fill="#F71616"/>
<path opacity="0.2" d="M30.6394 44.1773V17.9772H10.405V44.1773C10.405 44.1773 10.405 44.221 10.405 44.2648C10.9363 44.7896 11.6005 45.2708 12.4417 45.6644C14.4342 46.6267 17.1793 47.1078 19.9687 47.1953C20.323 47.1953 20.7214 47.1953 21.0757 47.1953C23.8651 47.1516 26.6102 46.6267 28.6027 45.6644C29.3996 45.2708 30.1081 44.8334 30.6394 44.2648C30.6394 44.2648 30.6394 44.221 30.6394 44.1773Z" fill="url(#paint2_linear_187_10468)"/>
<path d="M4.93188 49.7715L0.159063 48.6134L0.00064224 49.2505C-0.210586 50.1001 0.340842 50.9996 1.20081 51.2082L2.74875 51.5838C3.60872 51.7925 4.51924 51.2478 4.73047 50.3982L4.88889 49.7611L4.93188 49.7715Z" fill="#F71616"/>
<path d="M4.92667 49.2954L0.454836 48.2103C0.368839 48.1894 0.31528 48.2215 0.294157 48.3064L0.209666 48.6462L4.93949 49.7939L5.02398 49.4541C5.0451 49.3691 5.01267 49.3162 4.92667 49.2954Z" fill="#4D4D4D"/>
<path d="M5.53449 49.5576C5.84442 49.5576 5.84442 51.832 5.53449 51.832L5.00317 51.7446C4.73751 51.7008 4.5604 51.4384 4.60468 51.1759L4.91462 49.9075C4.95889 49.645 5.22455 49.5138 5.49021 49.5576H5.53449Z" fill="#F71616"/>
<path d="M5.2246 50.476C5.2246 50.1698 4.95895 49.8637 4.60473 49.8637C4.25052 49.8637 3.98486 50.1261 3.98486 50.476C3.98486 50.8259 4.25052 51.0884 4.60473 51.0884C4.95895 51.0884 5.2246 50.8259 5.2246 50.476Z" fill="#F71616"/>
<path d="M38.1559 51.5972L39.7039 51.2216C40.5638 51.0129 41.1152 50.1134 40.904 49.2639L40.7456 48.6267L35.9728 49.7848L36.1312 50.422C36.3424 51.2715 37.2529 51.8163 38.1129 51.6076L38.1559 51.5972Z" fill="#F71616"/>
<path d="M36.0261 49.7705L40.7989 48.6124L40.7145 48.2726C40.6933 48.1876 40.6398 48.1556 40.5538 48.1765L36.0819 49.2615C35.9959 49.2824 35.9635 49.3353 35.9846 49.4203L36.0691 49.7601L36.0261 49.7705Z" fill="#4D4D4D"/>
<path d="M35.4654 49.5576C35.0226 49.5576 35.0226 51.832 35.4654 51.832L35.9967 51.7446C36.2624 51.7008 36.4395 51.4384 36.3952 51.1759L36.0852 49.9075C36.041 49.645 35.7753 49.5138 35.5096 49.5576H35.4654Z" fill="#F71616"/>
<path d="M36.7495 50.2573C36.7495 49.9511 36.4838 49.6449 36.1296 49.6449C35.7754 49.6449 35.5098 49.9074 35.5098 50.2573C35.5098 50.6072 35.7754 50.8696 36.1296 50.8696C36.4838 50.8696 36.7495 50.6072 36.7495 50.2573Z" fill="#F71616"/>
<g opacity="0.5">
<path opacity="0.5" d="M5.75592 64.5161C5.75592 60.9294 5.9773 55.0683 5.49026 55.0683C5.00322 55.0683 3.98486 60.8857 3.98486 64.5161C3.98486 68.1465 5.00322 68.1465 5.49026 68.1465C5.9773 68.1465 5.75592 68.1465 5.75592 64.5161Z" fill="url(#paint3_linear_187_10468)"/>
<path opacity="0.5" d="M35.2882 64.5161C35.2882 60.9294 35.0669 55.0683 35.5539 55.0683C36.0409 55.0683 37.0593 60.8857 37.0593 64.5161C37.0593 68.1465 36.0409 68.1465 35.5539 68.1465C35.0669 68.1465 35.2882 68.1465 35.2882 64.5161Z" fill="url(#paint4_linear_187_10468)"/>
</g>
<path d="M36.1296 35.473C35.864 35.473 35.6426 35.6917 35.6426 35.9542V38.7098C35.6426 38.9722 35.864 39.1909 36.1296 39.1909C36.3953 39.1909 36.6167 38.9722 36.6167 38.7098V35.9542C36.6167 35.6917 36.3953 35.473 36.1296 35.473Z" fill="#E5E5E5"/>
<path d="M5.22459 35.473C4.95893 35.473 4.73755 35.6917 4.73755 35.9542V38.7098C4.73755 38.9722 4.95893 39.1909 5.22459 39.1909C5.49025 39.1909 5.71163 38.9722 5.71163 38.7098V35.9542C5.71163 35.6917 5.49025 35.473 5.22459 35.473Z" fill="#E5E5E5"/>
<path d="M7.48275 53.4935C7.65986 53.581 14.0357 59.1359 14.0357 59.1359L15.7182 76.6318L15.1869 58.5673L11.5562 55.4181L7.43848 53.4935H7.48275Z" fill="#D11207"/>
<path d="M33.5616 53.4935C33.3845 53.581 27.0087 59.1359 27.0087 59.1359L25.3262 76.6318L25.8575 58.5673L29.4882 55.4181L33.6059 53.4935H33.5616Z" fill="#D11207"/>
<g opacity="0.5">
<path d="M19.1275 56.2489V78.7749C18.3305 78.7749 17.5335 78.6437 16.7366 78.5125V56.1177C17.5335 56.2489 18.3305 56.2052 19.1275 56.2489Z" fill="#FBFBFB"/>
<path d="M19.1275 17.9767V47.1074C18.3305 47.1074 17.3122 46.9762 16.7366 46.845V17.9767H19.1275Z" fill="#FBFBFB"/>
<path d="M23.8209 56.1617V78.6001C23.0239 78.7314 22.2269 78.7751 21.4299 78.8188V56.2929C22.2269 56.2929 23.0239 56.2929 23.8209 56.1617Z" fill="#FBFBFB"/>
<path d="M23.8209 17.9767V46.9325C23.0682 47.0199 22.2712 47.1074 21.4299 47.1074V17.933H23.8209V17.9767Z" fill="#FBFBFB"/>
</g>
<path d="M25.9902 41.2905H15.0096C14.4961 41.2905 14.0798 40.8793 14.0798 40.372V33.5049C14.0798 32.9976 14.4961 32.5863 15.0096 32.5863H25.9902C26.5037 32.5863 26.92 32.9976 26.92 33.5049V40.372C26.92 40.8793 26.5037 41.2905 25.9902 41.2905Z" fill="#191917"/>
<path d="M25.7247 40.7656H15.3198C14.8552 40.7656 14.4785 40.3935 14.4785 39.9346V33.8985C14.4785 33.4395 14.8552 33.0674 15.3198 33.0674H25.7247C26.1893 33.0674 26.566 33.4395 26.566 33.8985V39.9346C26.566 40.3935 26.1893 40.7656 25.7247 40.7656Z" fill="#484D51"/>
<path d="M4.87036 69.3712C4.87036 69.3712 5.88872 68.1902 6.81853 69.0213C7.74833 69.8961 9.74077 73.6577 9.29801 74.2263C8.85524 74.7949 5.26885 71.8644 4.87036 69.3275V69.3712Z" fill="#FBFBFB"/>
<path d="M4.87036 69.3712C4.87036 69.3712 5.88872 68.1902 6.81853 69.0213C7.74833 69.8961 9.74077 73.6577 9.29801 74.2263C8.85524 74.7949 5.26885 71.8644 4.87036 69.3275V69.3712Z" fill="#FBFBFB"/>
<path d="M36.218 69.3714C36.218 69.3714 35.1996 68.1904 34.2698 69.0215C33.34 69.8963 31.3476 73.6579 31.7904 74.2265C32.2331 74.8389 35.8195 71.8646 36.218 69.3277V69.3714Z" fill="#FBFBFB"/>
<path opacity="0.2" d="M10.4051 17.0585C10.4936 15.6151 10.5379 14.1717 10.8921 12.8158C11.202 11.4598 11.7334 10.1039 12.6189 9.05414C13.5044 8.00439 14.6999 7.21707 16.0282 6.82341C17.3565 6.38602 18.7733 6.2548 20.1902 6.21106C21.607 6.21106 23.0239 6.38602 24.3522 6.82341C25.6804 7.21707 26.8759 8.00439 27.85 9.0104C28.8241 10.0164 29.4882 11.2849 29.931 12.6408C30.3738 13.9967 30.5951 15.3964 30.6837 16.8398C30.7722 15.3964 30.6837 13.953 30.3295 12.5533C29.9753 11.1537 29.3554 9.75398 28.337 8.61675C27.363 7.47951 26.0347 6.64845 24.6178 6.16732C23.201 5.68618 21.6956 5.51122 20.1902 5.46748C19.4375 5.46748 18.6848 5.51122 17.9763 5.64244C17.2236 5.72992 16.5152 5.90488 15.8068 6.16732C14.39 6.64845 13.0617 7.52325 12.1319 8.74797C11.202 9.92894 10.715 11.3723 10.4936 12.8158C10.2722 14.2592 10.3165 15.7026 10.4051 17.146V17.0585Z" fill="#A3A3A3"/>
</g>
<defs>
<linearGradient id="paint0_linear_187_10468" x1="30.2408" y1="72.8705" x2="11.7731" y2="51.2152" gradientUnits="userSpaceOnUse">
<stop stop-color="#FEE3E3"/>
<stop offset="0.3" stop-color="#FB8C8C"/>
<stop offset="0.5" stop-color="#F84C4C"/>
<stop offset="0.6" stop-color="#F71616"/>
<stop offset="0.7" stop-color="#F61818"/>
<stop offset="0.8" stop-color="#F43030"/>
<stop offset="0.9" stop-color="#EC8282"/>
<stop offset="1" stop-color="#E4E4E4"/>
</linearGradient>
<linearGradient id="paint1_linear_187_10468" x1="15.674" y1="50.6942" x2="27.1416" y2="50.6942" gradientUnits="userSpaceOnUse">
<stop stop-color="white"/>
<stop offset="0.2" stop-color="#C4C4C4"/>
<stop offset="0.4" stop-color="#858585"/>
<stop offset="0.6" stop-color="#4F4F4F"/>
<stop offset="0.7" stop-color="#515151"/>
<stop offset="0.8" stop-color="#696969"/>
<stop offset="0.9" stop-color="#9A9A9A"/>
<stop offset="1" stop-color="#E4E4E4"/>
</linearGradient>
<linearGradient id="paint2_linear_187_10468" x1="10.405" y1="32.5862" x2="30.6394" y2="32.5862" gradientUnits="userSpaceOnUse">
<stop stop-color="#FEE3E3"/>
<stop offset="0.3" stop-color="#FB8C8C"/>
<stop offset="0.5" stop-color="#F84C4C"/>
<stop offset="0.6" stop-color="#F71616"/>
<stop offset="0.7" stop-color="#F61818"/>
<stop offset="0.8" stop-color="#F43030"/>
<stop offset="0.9" stop-color="#EC8282"/>
<stop offset="1" stop-color="#E4E4E4"/>
</linearGradient>
<linearGradient id="paint3_linear_187_10468" x1="5.00322" y1="71.3395" x2="4.78717" y2="55.4619" gradientUnits="userSpaceOnUse">
<stop stop-color="white"/>
<stop offset="1" stop-color="#F00031"/>
</linearGradient>
<linearGradient id="paint4_linear_187_10468" x1="36.0409" y1="71.3395" x2="36.257" y2="55.4619" gradientUnits="userSpaceOnUse">
<stop stop-color="white"/>
<stop offset="1" stop-color="#F00031"/>
</linearGradient>
<clipPath id="clip0_187_10468">
<rect width="41" height="80" fill="white" transform="matrix(1 0 0 -1 0 80)"/>
</clipPath>
</defs>
</svg>
